<?xml version="1.0" encoding="UTF-8" standalone="no"?>
<!-- Created with Inkscape (http://www.inkscape.org/) -->

<svg
   xmlns:dc="http://purl.org/dc/elements/1.1/"
   xmlns:cc="http://creativecommons.org/ns#"
   xmlns:rdf="http://www.w3.org/1999/02/22-rdf-syntax-ns#"
   xmlns:svg="http://www.w3.org/2000/svg"
   xmlns="http://www.w3.org/2000/svg"
   xmlns:sodipodi="http://sodipodi.sourceforge.net/DTD/sodipodi-0.dtd"
   xmlns:inkscape="http://www.inkscape.org/namespaces/inkscape"
   width="121.55714mm"
   height="76.401588mm"
   viewBox="0 0 430.71428 270.71429"
   id="svg2"
   version="1.1"
   inkscape:version="0.91 r13725"
   sodipodi:docname="generic_sampling.svg">
  <defs
     id="defs4">
    <marker
       inkscape:stockid="Arrow1Mend"
       orient="auto"
       refY="0"
       refX="0"
       id="Arrow1Mend"
       style="overflow:visible"
       inkscape:isstock="true">
      <path
         id="path4380"
         d="M 0,0 5,-5 -12.5,0 5,5 0,0 Z"
         style="fill:#000000;fill-opacity:1;fill-rule:evenodd;stroke:#000000;stroke-width:1pt;stroke-opacity:1"
         transform="matrix(-0.4,0,0,-0.4,-4,0)"
         inkscape:connector-curvature="0" />
    </marker>
    <marker
       inkscape:stockid="Arrow1Lend"
       orient="auto"
       refY="0"
       refX="0"
       id="Arrow1Lend"
       style="overflow:visible"
       inkscape:isstock="true">
      <path
         id="path4374"
         d="M 0,0 5,-5 -12.5,0 5,5 0,0 Z"
         style="fill:#000000;fill-opacity:1;fill-rule:evenodd;stroke:#000000;stroke-width:1pt;stroke-opacity:1"
         transform="matrix(-0.8,0,0,-0.8,-10,0)"
         inkscape:connector-curvature="0" />
    </marker>
    <marker
       inkscape:stockid="Arrow1Mend"
       orient="auto"
       refY="0"
       refX="0"
       id="Arrow1Mend-7"
       style="overflow:visible"
       inkscape:isstock="true">
      <path
         inkscape:connector-curvature="0"
         id="path4380-0"
         d="M 0,0 5,-5 -12.5,0 5,5 0,0 Z"
         style="fill:#000000;fill-opacity:1;fill-rule:evenodd;stroke:#000000;stroke-width:1pt;stroke-opacity:1"
         transform="matrix(-0.4,0,0,-0.4,-4,0)" />
    </marker>
    <marker
       inkscape:stockid="Arrow1Mend"
       orient="auto"
       refY="0"
       refX="0"
       id="Arrow1Mend-7-3"
       style="overflow:visible"
       inkscape:isstock="true">
      <path
         inkscape:connector-curvature="0"
         id="path4380-0-6"
         d="M 0,0 5,-5 -12.5,0 5,5 0,0 Z"
         style="fill:#000000;fill-opacity:1;fill-rule:evenodd;stroke:#000000;stroke-width:1pt;stroke-opacity:1"
         transform="matrix(-0.4,0,0,-0.4,-4,0)" />
    </marker>
    <marker
       inkscape:stockid="Arrow1Mend"
       orient="auto"
       refY="0"
       refX="0"
       id="Arrow1Mend-7-6"
       style="overflow:visible"
       inkscape:isstock="true">
      <path
         inkscape:connector-curvature="0"
         id="path4380-0-2"
         d="M 0,0 5,-5 -12.5,0 5,5 0,0 Z"
         style="fill:#000000;fill-opacity:1;fill-rule:evenodd;stroke:#000000;stroke-width:1pt;stroke-opacity:1"
         transform="matrix(-0.4,0,0,-0.4,-4,0)" />
    </marker>
    <marker
       inkscape:stockid="Arrow1Mend"
       orient="auto"
       refY="0"
       refX="0"
       id="Arrow1Mend-7-6-1"
       style="overflow:visible"
       inkscape:isstock="true">
      <path
         inkscape:connector-curvature="0"
         id="path4380-0-2-8"
         d="M 0,0 5,-5 -12.5,0 5,5 0,0 Z"
         style="fill:#000000;fill-opacity:1;fill-rule:evenodd;stroke:#000000;stroke-width:1pt;stroke-opacity:1"
         transform="matrix(-0.4,0,0,-0.4,-4,0)" />
    </marker>
    <marker
       inkscape:stockid="Arrow1Mend"
       orient="auto"
       refY="0"
       refX="0"
       id="Arrow1Mend-7-6-1-9"
       style="overflow:visible"
       inkscape:isstock="true">
      <path
         inkscape:connector-curvature="0"
         id="path4380-0-2-8-2"
         d="M 0,0 5,-5 -12.5,0 5,5 0,0 Z"
         style="fill:#000000;fill-opacity:1;fill-rule:evenodd;stroke:#000000;stroke-width:1pt;stroke-opacity:1"
         transform="matrix(-0.4,0,0,-0.4,-4,0)" />
    </marker>
  </defs>
  <sodipodi:namedview
     id="base"
     pagecolor="#ffffff"
     bordercolor="#666666"
     borderopacity="1.0"
     inkscape:pageopacity="0.0"
     inkscape:pageshadow="2"
     inkscape:zoom="0.98994949"
     inkscape:cx="-177.92309"
     inkscape:cy="44.76801"
     inkscape:document-units="px"
     inkscape:current-layer="g7805"
     showgrid="false"
     fit-margin-top="0"
     fit-margin-left="0"
     fit-margin-right="0"
     fit-margin-bottom="0"
     inkscape:window-width="1920"
     inkscape:window-height="1028"
     inkscape:window-x="2412"
     inkscape:window-y="1440"
     inkscape:window-maximized="1"
     showguides="false" />
  <metadata
     id="metadata7">
    <rdf:RDF>
      <cc:Work
         rdf:about="">
        <dc:format>image/svg+xml</dc:format>
        <dc:type
           rdf:resource="http://purl.org/dc/dcmitype/StillImage" />
        <dc:title />
      </cc:Work>
    </rdf:RDF>
  </metadata>
  <g
     inkscape:label="Layer 1"
     inkscape:groupmode="layer"
     id="layer1"
     transform="translate(-100.82054,-333.15717)">
    <ellipse
       style="fill:#b3b3b3;stroke:#000000;stroke-width:5;stroke-miterlimit:4;stroke-dasharray:none;fill-opacity:1"
       id="path3336"
       cx="-240.20239"
       cy="464.70663"
       rx="212.85715"
       ry="132.85715" />
    <g
       id="g7805"
       transform="translate(541.44176,-361.63461)">
      <g
         id="g7999">
        <ellipse
           style="fill:none;stroke:#000000;stroke-width:5;stroke-miterlimit:4;stroke-dasharray:none"
           id="path3336-2"
           cx="-225.26407"
           cy="830.14893"
           rx="212.85715"
           ry="132.85715" />
        <circle
           style="fill:#b3b3b3;stroke:#aa0000;stroke-width:5.09203815;stroke-miterlimit:4;stroke-dasharray:none"
           id="path4336"
           cx="-218.7742"
           cy="743.85706"
           r="7.4539809" />
      </g>
      <path
         style="opacity:1;fill:#ffffff;fill-opacity:1;stroke:#ffffff;stroke-width:5.05076265;stroke-miterlimit:4;stroke-dasharray:none;stroke-opacity:1"
         d="M 219.54413,8.8661902 C 174.42468,9.4925566 129.04135,19.651962 88.476843,39.908652 56.624018,56.193841 26.24901,80.976728 13.644663,115.44517 c -5.1474343,12.62275 -5.4410074,26.71376 -4.1874445,40.15888 2.5929875,25.05674 18.1059535,46.69959 36.0181655,63.42742 36.976807,34.01019 86.253406,50.67226 135.055996,57.96155 30.71903,4.65656 62.09432,3.69239 93.11955,0.66931 49.96827,-6.56847 100.47972,-23.08114 138.79683,-56.90086 21.71126,-19.47017 39.19032,-46.70817 38.27926,-76.84262 0.71007,-31.41972 -18.7533,-59.437024 -41.9351,-78.955508 C 370.41023,32.395579 320.54756,17.049679 271.44072,10.821388 254.2156,9.2481816 236.89578,8.7998595 219.54413,8.8661902 Z M 237.05805,39.15301 c 10.15666,-0.270212 16.90787,12.286978 10.8769,20.560156 -5.6384,10.454603 -23.37866,6.133373 -24.74479,-5.330922 -1.48935,-7.94925 5.98457,-15.634104 13.86789,-15.229234 z"
         id="path1706"
         inkscape:connector-curvature="0"
         transform="matrix(0.93750002,0,0,0.93750002,-440.62122,694.79178)" />
      <path
         style="opacity:1;fill:#000000;fill-opacity:1;stroke:none;stroke-width:15;stroke-miterlimit:4;stroke-dasharray:none"
         d="m -1069.2744,827.33027 0,-35.08531 16.9201,0.43943 c 19.2296,0.49942 23.7922,1.6836 31.055,8.05997 5.8768,5.15949 8.7449,12.2116 9.3622,23.01903 0.8353,14.62655 -3.448,26.1196 -11.7924,31.64167 -7.1969,4.7627 -12.6487,5.9588 -29.635,6.5019 l -15.9099,0.5086 0,-35.08529 z m 35.3887,25.05092 c 9.4098,-4.20512 13.7508,-13.6866 12.8471,-28.06044 -0.5993,-9.5335 -2.2481,-13.99482 -6.8155,-18.44211 -4.8632,-4.73526 -10.7135,-6.35891 -22.9124,-6.35891 l -10.4266,0 0,27.90631 0,27.90632 11.3642,-0.4524 c 8.4896,-0.338 12.5225,-0.9701 15.9432,-2.49877 z"
         id="path4226"
         inkscape:connector-curvature="0" />
      <path
         style="opacity:1;fill:#000000;fill-opacity:1;stroke:none;stroke-width:15;stroke-miterlimit:4;stroke-dasharray:none"
         d="m -234.38329,801.54004 c 0.34337,-0.55558 1.45799,-1.01015 2.47693,-1.01015 2.75591,0 3.07891,-1.84201 3.07891,-17.55826 0,-14.96839 -0.47784,-16.78693 -4.411,-16.78693 -1.09264,0 -1.70712,-0.27951 -1.36549,-0.62114 1.16679,-1.16679 20.9002,-1.48473 24.92282,-0.40155 9.09157,2.4481 9.72962,13.20528 1.04949,17.69395 l -2.91506,1.50743 5.55351,8.06202 c 3.05443,4.4341 6.32571,8.51231 7.26952,9.06268 1.5128,0.88217 1.45665,1.0043 -0.47421,1.03138 -3.87815,0.0544 -5.28341,-1.06062 -10.59897,-8.40981 -6.1294,-8.47438 -6.40301,-8.69643 -10.7411,-8.71659 l -3.32725,-0.0155 0.29679,7.3236 c 0.27234,6.72032 0.48402,7.3502 2.56964,7.64641 1.25006,0.17753 2.27284,0.74574 2.27284,1.26269 0,0.51694 -3.66338,0.93989 -8.14084,0.93989 -5.16999,0 -7.91301,-0.36863 -7.51653,-1.01015 z m 22.1781,-18.81023 c 2.12533,-0.81557 4.59095,-5.63016 4.59095,-8.96472 0,-4.19991 -4.16898,-7.58039 -9.34851,-7.58039 -2.41426,0 -4.93505,0.54548 -5.60175,1.21218 -0.72141,0.72141 -1.21218,4.19775 -1.21218,8.5863 l 0,7.37411 4.96814,0 c 2.73248,0 5.70399,-0.28237 6.60335,-0.62748 z"
         id="path4228"
         inkscape:connector-curvature="0" />
    </g>
    <path
       style="fill:none;fill-rule:evenodd;stroke:#000000;stroke-width:10;stroke-linecap:butt;stroke-linejoin:miter;stroke-miterlimit:4;stroke-dasharray:none;stroke-opacity:1;marker-end:url(#Arrow1Mend)"
       d="m -16.345185,464.43312 90.91373,0"
       id="path4365"
       inkscape:connector-curvature="0" />
  </g>
</svg>
