<?xml version="1.0" encoding="UTF-8" standalone="no"?>
<!-- Created with Inkscape (http://www.inkscape.org/) -->

<svg
   xmlns:dc="http://purl.org/dc/elements/1.1/"
   xmlns:cc="http://creativecommons.org/ns#"
   xmlns:rdf="http://www.w3.org/1999/02/22-rdf-syntax-ns#"
   xmlns:svg="http://www.w3.org/2000/svg"
   xmlns="http://www.w3.org/2000/svg"
   xmlns:sodipodi="http://sodipodi.sourceforge.net/DTD/sodipodi-0.dtd"
   xmlns:inkscape="http://www.inkscape.org/namespaces/inkscape"
   width="433.07449mm"
   height="184.8036mm"
   viewBox="0 0 1534.5159 654.81592"
   id="svg2"
   version="1.1"
   inkscape:version="0.91 r13725"
   sodipodi:docname="partial_sampling.svg">
  <defs
     id="defs4">
    <marker
       inkscape:stockid="Arrow1Mend"
       orient="auto"
       refY="0"
       refX="0"
       id="Arrow1Mend"
       style="overflow:visible"
       inkscape:isstock="true">
      <path
         id="path4380"
         d="M 0,0 5,-5 -12.5,0 5,5 0,0 Z"
         style="fill:#000000;fill-opacity:1;fill-rule:evenodd;stroke:#000000;stroke-width:1pt;stroke-opacity:1"
         transform="matrix(-0.4,0,0,-0.4,-4,0)"
         inkscape:connector-curvature="0" />
    </marker>
    <marker
       inkscape:stockid="Arrow1Lend"
       orient="auto"
       refY="0"
       refX="0"
       id="Arrow1Lend"
       style="overflow:visible"
       inkscape:isstock="true">
      <path
         id="path4374"
         d="M 0,0 5,-5 -12.5,0 5,5 0,0 Z"
         style="fill:#000000;fill-opacity:1;fill-rule:evenodd;stroke:#000000;stroke-width:1pt;stroke-opacity:1"
         transform="matrix(-0.8,0,0,-0.8,-10,0)"
         inkscape:connector-curvature="0" />
    </marker>
    <marker
       inkscape:stockid="Arrow1Mend"
       orient="auto"
       refY="0"
       refX="0"
       id="Arrow1Mend-7"
       style="overflow:visible"
       inkscape:isstock="true">
      <path
         inkscape:connector-curvature="0"
         id="path4380-0"
         d="M 0,0 5,-5 -12.5,0 5,5 0,0 Z"
         style="fill:#000000;fill-opacity:1;fill-rule:evenodd;stroke:#000000;stroke-width:1pt;stroke-opacity:1"
         transform="matrix(-0.4,0,0,-0.4,-4,0)" />
    </marker>
    <marker
       inkscape:stockid="Arrow1Mend"
       orient="auto"
       refY="0"
       refX="0"
       id="Arrow1Mend-7-3"
       style="overflow:visible"
       inkscape:isstock="true">
      <path
         inkscape:connector-curvature="0"
         id="path4380-0-6"
         d="M 0,0 5,-5 -12.5,0 5,5 0,0 Z"
         style="fill:#000000;fill-opacity:1;fill-rule:evenodd;stroke:#000000;stroke-width:1pt;stroke-opacity:1"
         transform="matrix(-0.4,0,0,-0.4,-4,0)" />
    </marker>
    <marker
       inkscape:stockid="Arrow1Mend"
       orient="auto"
       refY="0"
       refX="0"
       id="Arrow1Mend-7-6"
       style="overflow:visible"
       inkscape:isstock="true">
      <path
         inkscape:connector-curvature="0"
         id="path4380-0-2"
         d="M 0,0 5,-5 -12.5,0 5,5 0,0 Z"
         style="fill:#000000;fill-opacity:1;fill-rule:evenodd;stroke:#000000;stroke-width:1pt;stroke-opacity:1"
         transform="matrix(-0.4,0,0,-0.4,-4,0)" />
    </marker>
    <marker
       inkscape:stockid="Arrow1Mend"
       orient="auto"
       refY="0"
       refX="0"
       id="Arrow1Mend-7-6-1"
       style="overflow:visible"
       inkscape:isstock="true">
      <path
         inkscape:connector-curvature="0"
         id="path4380-0-2-8"
         d="M 0,0 5,-5 -12.5,0 5,5 0,0 Z"
         style="fill:#000000;fill-opacity:1;fill-rule:evenodd;stroke:#000000;stroke-width:1pt;stroke-opacity:1"
         transform="matrix(-0.4,0,0,-0.4,-4,0)" />
    </marker>
    <marker
       inkscape:stockid="Arrow1Mend"
       orient="auto"
       refY="0"
       refX="0"
       id="Arrow1Mend-7-6-1-9"
       style="overflow:visible"
       inkscape:isstock="true">
      <path
         inkscape:connector-curvature="0"
         id="path4380-0-2-8-2"
         d="M 0,0 5,-5 -12.5,0 5,5 0,0 Z"
         style="fill:#000000;fill-opacity:1;fill-rule:evenodd;stroke:#000000;stroke-width:1pt;stroke-opacity:1"
         transform="matrix(-0.4,0,0,-0.4,-4,0)" />
    </marker>
  </defs>
  <sodipodi:namedview
     id="base"
     pagecolor="#ffffff"
     bordercolor="#666666"
     borderopacity="1.0"
     inkscape:pageopacity="0.0"
     inkscape:pageshadow="2"
     inkscape:zoom="0.9899495"
     inkscape:cx="557.71131"
     inkscape:cy="393.09185"
     inkscape:document-units="px"
     inkscape:current-layer="layer1"
     showgrid="false"
     fit-margin-top="0"
     fit-margin-left="0"
     fit-margin-right="0"
     fit-margin-bottom="0"
     inkscape:window-width="1920"
     inkscape:window-height="1028"
     inkscape:window-x="2412"
     inkscape:window-y="1440"
     inkscape:window-maximized="1" />
  <metadata
     id="metadata7">
    <rdf:RDF>
      <cc:Work
         rdf:about="">
        <dc:format>image/svg+xml</dc:format>
        <dc:type
           rdf:resource="http://purl.org/dc/dcmitype/StillImage" />
        <dc:title />
      </cc:Work>
    </rdf:RDF>
  </metadata>
  <g
     inkscape:label="Layer 1"
     inkscape:groupmode="layer"
     id="layer1"
     transform="translate(455.55954,-328.24857)">
    <ellipse
       style="fill:#b3b3b3;stroke:#000000;stroke-width:5;stroke-miterlimit:4;stroke-dasharray:none"
       id="path3336"
       cx="-240.20239"
       cy="464.70663"
       rx="212.85715"
       ry="132.85715" />
    <g
       id="g4967"
       transform="translate(-16.243661,18.345186)">
      <ellipse
         ry="132.85715"
         rx="212.85715"
         cy="445.26053"
         cx="327.28943"
         id="path3336-3"
         style="fill:none;stroke:#000000;stroke-width:5;stroke-miterlimit:4;stroke-dasharray:none" />
      <path
         inkscape:connector-curvature="0"
         id="path4153"
         d="M 169.70563,536.17425 276.7818,314.95085"
         style="fill:none;fill-rule:evenodd;stroke:#000000;stroke-width:5;stroke-linecap:butt;stroke-linejoin:miter;stroke-miterlimit:4;stroke-dasharray:none;stroke-opacity:1" />
      <path
         inkscape:connector-curvature="0"
         id="path4167"
         d="m 322.57249,313.39239 c -14.83827,0.60724 -30.18597,-0.34846 -44.60067,3.47958 -11.8555,20.49869 -21.4585,42.39578 -32.21174,63.54313 -24.74249,50.67349 -49.1831,101.4938 -73.77726,152.23959 0.43303,5.68441 8.06752,7.24241 12.20964,10.20225 24.38687,13.50085 50.82841,22.96971 78.17607,28.30064 35.10949,7.76584 71.43542,6.8006 107.04732,3.81777 49.44442,-6.86848 100.05633,-23.28249 136.72622,-58.56006 23.03188,-21.63456 38.26106,-54.07855 32.01316,-86.01685 -6.71619,-36.13238 -35.1912,-63.66109 -65.7285,-81.63458 -36.05345,-20.77747 -77.38718,-31.47182 -118.67417,-34.73149 -10.38194,-0.56865 -20.78413,-0.7073 -31.18007,-0.63998 z"
         style="fill:#b3b3b3;stroke:#000000;stroke-width:5.05076265;stroke-miterlimit:4;stroke-dasharray:none" />
    </g>
    <g
       id="g4338"
       transform="translate(1127.3303,-317.00515)">
      <g
         transform="translate(-702.05602,212.13203)"
         id="g4190">
        <ellipse
           style="fill:none;stroke:#000000;stroke-width:5;stroke-miterlimit:4;stroke-dasharray:none"
           id="path3336-3-6"
           cx="437.39606"
           cy="569.50928"
           rx="212.85715"
           ry="132.85715" />
        <path
           style="fill:none;fill-rule:evenodd;stroke:#000000;stroke-width:5;stroke-linecap:butt;stroke-linejoin:miter;stroke-miterlimit:4;stroke-dasharray:none;stroke-opacity:1"
           d="M 279.81225,660.42301 386.88842,439.19961"
           id="path4153-7"
           inkscape:connector-curvature="0" />
        <path
           style="fill:#b3b3b3;stroke:#000000;stroke-width:5.05076265;stroke-miterlimit:4;stroke-dasharray:none"
           d="m 432.67911,437.64115 c -14.83827,0.60724 -30.18597,-0.34846 -44.60067,3.47958 -11.8555,20.49869 -21.4585,42.39578 -32.21174,63.54313 -24.74249,50.67349 -49.1831,101.4938 -73.77726,152.23959 0.43303,5.68441 8.06752,7.24241 12.20964,10.20225 24.38687,13.50085 50.82841,22.96971 78.17607,28.30064 35.10949,7.76584 71.43542,6.8006 107.04732,3.81777 49.44442,-6.86848 100.05633,-23.28249 136.72622,-58.56006 23.03188,-21.63456 38.26106,-54.07855 32.01316,-86.01685 -6.71619,-36.13238 -35.1912,-63.66109 -65.7285,-81.63458 -36.05345,-20.77747 -77.38718,-31.47182 -118.67417,-34.73149 -10.38194,-0.56865 -20.78413,-0.7073 -31.18007,-0.63998 z"
           id="path4167-5"
           inkscape:connector-curvature="0" />
      </g>
      <path
         inkscape:connector-curvature="0"
         id="path4199"
         d="m -304.05592,781.64132 c 0,0 42.42641,-29.29442 65.65992,-27.27412 23.23351,2.02031 69.70052,-12.12183 36.36549,34.34519 -33.33503,46.46702 -64.64976,39.39595 -80.8122,24.24366 -16.16244,-15.15229 -15.15229,-5.05076 -21.21321,-31.31473 z"
         style="fill:none;fill-rule:evenodd;stroke:#000000;stroke-width:5;stroke-linecap:butt;stroke-linejoin:miter;stroke-miterlimit:4;stroke-dasharray:none;stroke-opacity:1" />
      <path
         inkscape:connector-curvature="0"
         id="path4203"
         d="m -215.92759,754.90008 c -16.94846,0.46491 -34.86786,-1.41414 -50.47014,6.72778 -12.26837,5.8998 -25.4613,11.12517 -35.68877,20.27802 -1.84222,6.08366 2.00839,12.6671 4.78836,18.00715 9.80531,9.19459 20.45978,18.95819 33.63689,22.87838 21.34253,4.58462 41.43526,-9.5936 54.19848,-25.43898 7.5507,-9.78742 16.65316,-20.08433 18.14778,-32.80066 0.22548,-7.69996 -8.88973,-10.51927 -15.20152,-9.66542 -3.13687,-0.05 -6.27413,0.003 -9.41108,0.0137 z"
         style="fill:#ffffff;stroke:#000000;stroke-width:5.05076265;stroke-miterlimit:4;stroke-dasharray:none" />
    </g>
    <g
       id="g4346"
       transform="translate(577.72604,79.198)">
      <ellipse
         ry="132.85715"
         rx="212.85715"
         cy="768.50934"
         cx="285.87317"
         id="path3336-3-6-5"
         style="fill:none;stroke:#000000;stroke-width:5;stroke-miterlimit:4;stroke-dasharray:none" />
      <path
         inkscape:connector-curvature="0"
         id="path4199-9"
         d="m 246.47721,768.50935 c 0,0 42.42642,-29.29442 65.65993,-27.27412 23.23351,2.02031 69.70052,-12.12183 36.36549,34.34514 -33.33503,46.4671 -64.64976,39.396 -80.81221,24.2437 -16.16244,-15.1523 -15.15229,-5.0508 -21.21321,-31.31472 z"
         style="fill:none;fill-rule:evenodd;stroke:#000000;stroke-width:5;stroke-linecap:butt;stroke-linejoin:miter;stroke-miterlimit:4;stroke-dasharray:none;stroke-opacity:1" />
      <path
         inkscape:connector-curvature="0"
         id="path4203-1"
         d="m 334.60555,741.76811 c -16.94846,0.46491 -34.86786,-1.41414 -50.47014,6.72778 -12.26838,5.8998 -25.46131,11.12517 -35.68878,20.27802 -1.84222,6.08366 2.00839,12.66706 4.78836,18.00716 9.80531,9.1946 20.45978,18.9582 33.6369,22.8784 21.34253,4.5846 41.43526,-9.5936 54.19848,-25.439 7.5507,-9.7874 16.65316,-20.08434 18.14778,-32.80067 0.22548,-7.69996 -8.88973,-10.51927 -15.20152,-9.66542 -3.13687,-0.05 -6.27413,0.003 -9.41108,0.0137 z"
         style="fill:#ffffff;stroke:#000000;stroke-width:5.05076265;stroke-miterlimit:4;stroke-dasharray:none" />
      <path
         inkscape:connector-curvature="0"
         id="path4243"
         d="m 325.26912,641.23012 c 4.25768,0.80983 0.24232,3.5151 1.01015,5.05076 0.21296,0.42592 0.85957,0.5584 1.01016,1.01016 0.21295,0.63887 -0.16334,1.36697 0,2.0203 0.36522,1.46089 1.65508,2.57973 2.0203,4.04061 0.16333,0.65333 -0.21296,1.38143 0,2.02031 0.15058,0.45175 0.74601,0.61394 1.01015,1.01015 0.41765,0.62647 0.73053,1.32123 1.01016,2.0203 1.15639,2.89099 0.59891,2.68178 2.0203,5.05077 0.62463,1.04104 1.29187,2.05921 2.02031,3.03045 0.28571,0.38096 0.79719,0.58424 1.01015,1.01016 1.01861,2.03722 0.69634,3.28547 2.0203,5.05076 0.57143,0.7619 1.44888,1.2584 2.02031,2.02031 0.90351,1.20467 1.18501,2.78767 2.0203,4.04061 0.26415,0.39621 0.67344,0.67343 1.01016,1.01015 0.33671,0.67343 0.5925,1.39383 1.01015,2.0203 0.26414,0.39622 0.58423,0.7972 1.01015,1.01016 0.30117,0.15058 0.85957,-0.30117 1.01015,0 0.30117,0.60233 -0.30117,1.41796 0,2.0203 0.15059,0.30117 0.77206,-0.23809 1.01016,0 0.23809,0.2381 -0.15059,0.70898 0,1.01015 0.21295,0.42592 0.79719,0.58424 1.01015,1.01016 0.15058,0.30117 -0.15059,0.70898 0,1.01015 0.21296,0.42592 0.67343,0.67343 1.01015,1.01015 0.78902,0.78902 2.44935,2.1588 3.03046,3.03046 2.22553,0.5087 0.53396,2.07808 1.01015,3.03046 0.44767,0.89533 2.41742,2.1109 3.03046,3.03045 0.41765,0.62647 0.5584,1.41797 1.01015,2.02031 0.9431,1.25746 3.89819,3.89819 5.05076,5.05076 0.67344,0.67344 1.49202,1.22788 2.02031,2.02031 0.41765,0.62647 0.59251,1.39383 1.01015,2.0203 0.61304,0.91956 2.58279,2.13512 3.03046,3.03046 0.15058,0.30117 -0.15059,0.70898 0,1.01015 0.44767,0.89534 2.41742,2.1109 3.03046,3.03046 0.41764,0.62647 0.5925,1.39383 1.01015,2.0203 0.26414,0.39622 0.67343,0.67344 1.01015,1.01016 1.01015,1.01015 2.02031,2.0203 3.03046,3.03045 0.33672,0.33672 0.79719,0.58424 1.01015,1.01016 0.69668,1.39336 -1.22335,0.90355 1.01015,2.0203 0.30117,0.15059 0.77206,-0.23809 1.01016,0 1.23035,1.23035 0.47318,2.2569 2.0203,3.03046 0.30117,0.15058 0.72999,-0.18678 1.01016,0 1.48641,0.99094 2.55419,3.04967 4.04061,4.04061 0.62647,0.41765 1.39383,0.59251 2.0203,1.01015 1.18864,0.79243 1.8876,2.17332 3.03046,3.03046 0.60234,0.45175 1.41796,0.5584 2.0203,1.01015 0.76191,0.57143 1.34687,1.34687 2.02031,2.02031 0.33672,0.33672 0.58423,0.79719 1.01015,1.01015 0.30117,0.15059 0.72999,-0.18678 1.01015,0 0.79243,0.52829 1.34687,1.34687 2.02031,2.02031 0.33672,0.33671 0.58423,0.79719 1.01015,1.01015 0.30117,0.15058 0.70898,-0.15059 1.01015,0 0.85184,0.42592 1.16847,1.59439 2.02031,2.0203 0.30117,0.15059 0.77206,-0.23809 1.01015,0 0.2381,0.2381 -0.23809,0.77206 0,1.01016 0.2381,0.23809 0.70898,-0.15059 1.01015,0 1.21219,0.60609 1.81828,2.42436 3.03046,3.03045 0.30117,0.15059 0.77206,-0.23809 1.01015,0 0.2381,0.2381 -0.23809,0.77206 0,1.01016 0.2381,0.23809 0.77206,-0.2381 1.01016,0 0.23809,0.23809 -0.2381,0.77205 0,1.01015 0.23809,0.23809 0.77205,-0.2381 1.01015,0 0.23809,0.23809 -0.2381,0.77206 0,1.01015 2.09004,2.09004 -0.0817,-3.19386 2.0203,1.01015 0.15059,0.30117 -0.23809,0.77206 0,1.01016 0.2381,0.23809 0.70899,-0.15059 1.01016,0 0.42591,0.21296 0.61393,0.74601 1.01015,1.01015 4.88521,2.4426 -0.0546,-0.29352 3.03046,2.0203 0.97124,0.72844 1.98941,1.39568 3.03045,2.02031 0.64563,0.38737 1.41797,0.5584 2.02031,1.01015 0.7619,0.57143 1.2584,1.44888 2.0203,2.02031 1.56043,1.17032 4.37878,1.90903 6.06092,3.03045 0.39621,0.26415 0.67343,0.67344 1.01015,1.01016 0.67344,0.33671 1.39384,0.5925 2.02031,1.01015 0.79243,0.52829 1.16847,1.59439 2.0203,2.0203 0.30117,0.15059 0.70899,-0.15058 1.01016,0 0.42591,0.21296 0.58423,0.7972 1.01015,1.01016 0.30117,0.15058 0.70898,-0.15059 1.01015,0 0.85184,0.42591 1.22788,1.49202 2.02031,2.0203 2.64793,1.76529 1.76528,0.37757 5.05076,2.02031 0.85183,0.42592 1.16847,1.59438 2.0203,2.0203 1.39336,0.69668 0.90356,-1.22335 2.02031,1.01015 0.15058,0.30117 -0.2381,0.77206 0,1.01016 0.23809,0.23809 0.70898,-0.15059 1.01015,0 0.42592,0.21296 0.67344,0.67343 1.01015,1.01015 0.33672,0.33672 0.67344,0.67344 1.01016,1.01015 0.33671,0.33672 0.58423,0.7972 1.01015,1.01016 0.60234,0.30116 1.54411,-0.4762 2.0203,0 0.2381,0.23809 -0.23809,0.77205 0,1.01015 0.2381,0.23809 0.70899,-0.15059 1.01016,0 0.85183,0.42592 1.11679,1.71913 2.0203,2.0203 0.63888,0.21296 1.38143,-0.21296 2.02031,0 0.45175,0.15059 0.61393,0.74601 1.01015,1.01016 0.62647,0.41764 1.39383,0.5925 2.0203,1.01015 0.39622,0.26414 0.58424,0.79719 1.01016,1.01015 0.30117,0.15059 0.67343,0 1.01015,0 0.67343,0.33672 1.39383,0.59251 2.0203,1.01015 0.91956,0.61304 2.13512,2.58279 3.03046,3.03046 0.30117,0.15059 0.70898,-0.15058 1.01015,0 0.85184,0.42592 1.16847,1.59439 2.02031,2.02031 0.30117,0.15058 0.70898,-0.15059 1.01015,0 0.42592,0.21295 0.58424,0.79719 1.01015,1.01015 0.30117,0.15058 0.70899,-0.15059 1.01016,0 0.42591,0.21296 0.58423,0.79719 1.01015,1.01015 0.30117,0.15059 0.70898,-0.15058 1.01015,0 0.42592,0.21296 0.58424,0.79719 1.01015,1.01015 0.60234,0.30117 1.38143,-0.21296 2.02031,0 5.72321,2.86161 -1.50585,-0.37646 4.04061,1.01016 4.87797,1.21949 -0.0501,0.48004 3.03046,2.0203 0.30117,0.15059 0.67343,0 1.01015,0"
         style="fill:none;fill-rule:evenodd;stroke:#000000;stroke-width:5;stroke-linecap:butt;stroke-linejoin:miter;stroke-miterlimit:4;stroke-dasharray:none;stroke-opacity:1" />
      <path
         inkscape:connector-curvature="0"
         id="path4245"
         d="m 253.54829,899.82917 c 7.27409,-0.41621 1.06792,-4.15615 2.0203,-6.06091 0.21296,-0.42592 0.7972,-0.58424 1.01016,-1.01016 0.15058,-0.30117 0,-0.67343 0,-1.01015 0,-0.67344 -0.13207,-1.35995 0,-2.02031 0.20882,-1.04411 0.8351,-1.98015 1.01015,-3.03045 0.16607,-0.99641 -0.19811,-2.03992 0,-3.03046 0.29532,-1.4766 1.65508,-2.57972 2.0203,-4.04061 0.16334,-0.65333 -0.21295,-1.38143 0,-2.02031 0.15059,-0.45175 0.85957,-0.55839 1.01016,-1.01015 0.31943,-0.95831 0,-2.0203 0,-3.03046 0,-2.35702 0,-4.71404 0,-7.07106 0,-2.69374 0,-5.38748 0,-8.08122 0,-0.24005 0.1132,-3.81421 0,-4.04061 -0.21296,-0.42592 -0.7972,-0.58424 -1.01016,-1.01016 -0.33472,-0.66945 0.28222,-3.19397 0,-4.04061 -2.8616,-5.7232 0.37647,1.50585 -1.01015,-4.04061 -0.36522,-1.46088 -1.46105,-2.64246 -2.0203,-4.04061 -3.71229,-9.28071 0.88385,0.31564 -2.02031,-4.04061 -0.41765,-0.62647 -0.5584,-1.41796 -1.01015,-2.0203 -0.57143,-0.76191 -1.44888,-1.2584 -2.02031,-2.02031 -0.45175,-0.60234 -0.5925,-1.39383 -1.01015,-2.0203 -0.26414,-0.39622 -0.74601,-0.61394 -1.01015,-1.01016 -0.41765,-0.62647 -0.59251,-1.39383 -1.01015,-2.0203 -0.26415,-0.39621 -0.7972,-0.58424 -1.01016,-1.01015 -0.15058,-0.30117 0.15059,-0.70899 0,-1.01016 -0.21296,-0.42591 -0.74601,-0.61393 -1.01015,-1.01015 -0.41765,-0.62647 -0.5925,-1.39383 -1.01015,-2.0203 -0.26414,-0.39622 -0.7972,-0.58424 -1.01015,-1.01016 -0.15059,-0.30116 0.23809,-0.77205 0,-1.01015 -0.5324,-0.5324 -1.48791,-0.47775 -2.02031,-1.01015 -0.23809,-0.2381 0.10648,-0.69071 0,-1.01015 -0.61155,-1.83467 -0.86454,-1.87469 -2.0203,-3.03046 -0.33672,-0.33672 -0.7972,-0.58424 -1.01016,-1.01015 -0.15058,-0.30117 0.15059,-0.70899 0,-1.01016 -0.21296,-0.42591 -0.79719,-0.58423 -1.01015,-1.01015 -0.15058,-0.30117 0.2381,-0.77206 0,-1.01015 -0.23809,-0.2381 -0.77206,0.23809 -1.01015,0 -0.2381,-0.2381 0.23809,-0.77206 0,-1.01015 -0.2381,-0.2381 -0.77206,0.23809 -1.01015,0 -0.2381,-0.2381 0.15058,-0.70899 0,-1.01016 -0.77357,-1.54712 -1.80011,-0.78995 -3.03046,-2.0203 -0.5324,-0.5324 -0.47776,-1.48791 -1.01015,-2.02031 -0.5324,-0.53239 -1.41797,-0.55839 -2.02031,-1.01015 -0.7619,-0.57143 -1.2584,-1.44888 -2.0203,-2.0203 -0.60234,-0.45176 -1.34687,-0.67344 -2.02031,-1.01016 -1.01015,-0.67343 -2.08244,-1.26189 -3.03046,-2.0203 -0.74368,-0.59495 -1.20364,-1.53031 -2.0203,-2.02031 -0.91306,-0.54783 -2.11741,-0.46232 -3.03046,-1.01015 -0.81666,-0.49 -1.2584,-1.44888 -2.02031,-2.0203 -1.20467,-0.90351 -2.83593,-1.1168 -4.04061,-2.02031 -0.7619,-0.57143 -1.34687,-1.34687 -2.0203,-2.0203 -0.33672,-0.33672 -0.58424,-0.7972 -1.01015,-1.01016 -0.30117,-0.15058 -0.69072,0.10648 -1.01016,0 -0.71428,-0.23809 -1.30602,-0.77205 -2.0203,-1.01015 -0.31944,-0.10648 -0.77206,0.2381 -1.01015,0 -0.2381,-0.23809 0.30117,-0.85957 0,-1.01015 -0.60234,-0.30117 -1.41797,0.30117 -2.02031,0 -0.30117,-0.15059 0.2381,-0.77206 0,-1.01015 -0.23809,-0.2381 -0.70898,0.15058 -1.01015,0 -0.42592,-0.21296 -0.58424,-0.7972 -1.01015,-1.01016 -0.80813,-0.40406 -2.22234,0.40406 -3.03046,0 -0.42592,-0.21296 -0.61394,-0.74601 -1.01015,-1.01015 -0.67344,-0.33672 -1.34687,-0.67343 -2.02031,-1.01015 -0.33672,0 -0.70898,0.15058 -1.01015,0 -3.08052,-1.54026 1.84751,-0.80081 -3.03046,-2.02031 -0.65333,-0.16333 -1.38143,0.21296 -2.0203,0 -0.90351,-0.30117 -1.22788,-1.49202 -2.02031,-2.0203 -0.62647,-0.41765 -1.39383,-0.59251 -2.0203,-1.01016 -0.39622,-0.26414 -0.58424,-0.79719 -1.01016,-1.01015 -0.30117,-0.15058 -0.70898,0.15059 -1.01015,0 -0.85183,-0.42592 -1.16847,-1.59438 -2.0203,-2.0203 -0.30117,-0.15059 -0.77206,0.23809 -1.01016,0 -0.23809,-0.2381 0.2381,-0.77206 0,-1.01016 -0.23809,-0.23809 -0.70898,0.15059 -1.01015,0 -0.85183,-0.42591 -1.16847,-1.59438 -2.0203,-2.0203 -0.30117,-0.15058 -0.77206,0.23809 -1.01016,0 -0.23809,-0.2381 0.2381,-0.77206 0,-1.01015 -0.23809,-0.2381 -0.70898,0.15058 -1.01015,0 -0.42592,-0.21296 -0.67343,-0.67344 -1.01015,-1.01016"
         style="fill:none;fill-rule:evenodd;stroke:#000000;stroke-width:5;stroke-linecap:butt;stroke-linejoin:miter;stroke-miterlimit:4;stroke-dasharray:none;stroke-opacity:1" />
      <path
         inkscape:connector-curvature="0"
         id="path4262"
         d="m 330.13911,640.07988 c -3.39326,0.52619 -2.30143,4.94301 -2.3054,7.41831 0.33717,2.75559 2.20256,4.9722 2.53032,7.72313 2.16245,3.8131 3.44641,8.11346 6.22683,11.59181 1.3327,3.34375 3.30538,6.30085 5.40866,9.17847 1.82146,3.97199 5.474,6.69499 7.33724,10.66192 1.56391,2.99264 5.43485,4.66854 5.65269,8.29126 2.71605,3.8086 5.79261,7.45812 9.36291,10.56977 1.48774,2.1987 3.28375,4.20193 4.94693,6.25657 0.89412,2.45143 3.27351,3.99038 4.64433,6.21086 5.11293,5.77221 10.54722,11.43258 16.84114,15.8665 1.8415,2.12119 4.55104,3.24638 6.41013,5.32599 2.8808,1.38902 5.02606,3.87131 7.86419,5.40194 2.96657,2.48319 6.05292,4.78313 9.04008,7.17071 1.53994,2.79643 4.81803,3.90783 7.03457,6.05006 2.64626,1.20307 4.51875,3.33648 6.92408,4.8219 4.99032,2.04334 8.99267,5.7194 13.74163,8.15126 2.25574,2.29704 5.78692,2.71788 8.36236,4.64729 2.65159,1.64341 4.26797,5.06074 7.61166,5.62589 4.83629,3.84073 11.05962,5.51813 15.57221,9.82614 5.05356,3.21296 10.77507,6.27286 16.87006,6.45073 3.80956,-1.06951 3.40162,-6.00994 4.57755,-9.02345 5.55816,-20.68339 1.63545,-43.08593 -8.57884,-61.68082 -15.05981,-27.25911 -40.90123,-46.83815 -68.27591,-60.65502 -27.44485,-13.67754 -57.42726,-22.08405 -87.79942,-25.88122 z m 65.42908,97.11867 c -0.0122,-0.0168 -0.0194,-0.0962 0,0 z m 23.47125,18.78253 c -0.0256,-0.0171 -0.0532,-0.12452 0,0 z"
         style="fill:#ffffff;stroke:#000000;stroke-width:2.52538133;stroke-miterlimit:4;stroke-dasharray:none" />
      <path
         inkscape:connector-curvature="0"
         id="path4313"
         d="M 171.72593,769.01442 235.36554,639.20981"
         style="fill:none;fill-rule:evenodd;stroke:#000000;stroke-width:5;stroke-linecap:butt;stroke-linejoin:miter;stroke-miterlimit:4;stroke-dasharray:none;stroke-opacity:1" />
      <path
         inkscape:connector-curvature="0"
         id="path4317"
         d="m 170.71578,766.48903 5.55584,6.06092"
         style="fill:none;fill-rule:evenodd;stroke:#000000;stroke-width:5;stroke-linecap:butt;stroke-linejoin:miter;stroke-miterlimit:4;stroke-dasharray:none;stroke-opacity:1" />
      <path
         inkscape:connector-curvature="0"
         id="path4319"
         d="m 284.78484,636.38059 c -15.68887,0.37306 -31.46106,0.99902 -46.97407,3.46747 -3.54741,2.15761 -4.55815,6.7688 -6.70196,10.12274 -18.21709,36.63439 -36.31761,73.33251 -53.91649,110.2683 -0.93589,2.80414 -3.23567,5.48226 -2.94125,8.53954 3.40084,4.18354 8.40549,6.86948 12.60884,10.2149 3.24237,2.00092 7.04626,2.73878 10.24684,4.86933 3.35112,1.0871 6.63795,2.30373 9.69858,4.13893 3.34234,1.04524 5.16157,4.19039 8.40426,5.44568 2.07235,1.61113 4.26288,2.91558 6.62223,4.03567 3.97577,3.42132 8.86766,5.70335 12.42978,9.50081 2.83895,2.33171 5.02667,5.26255 6.6842,8.46689 5.03241,5.45144 7.52477,12.8396 12.37338,18.44022 2.99857,2.8368 3.92957,7.08207 5.61009,10.74471 2.87847,9.46803 2.27037,19.46463 2.25131,29.24069 0.22588,5.49025 -3.65896,10.01113 -3.61264,15.50097 -0.47843,3.28547 -1.4174,8.29746 2.17912,10.10449 13.13687,1.44909 26.42067,0.79163 39.61666,0.76806 38.18587,-1.39179 76.4063,-9.25308 111.31196,-25.02268 28.86963,-13.24146 56.41493,-32.3355 73.39627,-59.74094 2.35076,-4.42744 5.61135,-8.72237 6.43775,-13.7446 -0.423,-4.17389 -5.5766,-3.03985 -8.38998,-4.27243 -5.15716,-1.92902 -9.70441,-5.18454 -13.95175,-8.67113 -2.9114,-0.70633 -5.07799,-3.15138 -8.0536,-3.72198 -2.72846,-1.71618 -5.56789,-3.19881 -7.94607,-5.39504 -2.96221,-1.76677 -5.10114,-5.01254 -8.71553,-5.74524 -3.15552,-2.18613 -6.67204,-3.8379 -9.54416,-6.40322 -3.48926,-2.49192 -7.77691,-3.69273 -10.77233,-6.86786 -3.37128,-1.78705 -6.51218,-4.10121 -9.66057,-6.27498 -3.56903,-3.27167 -7.0771,-6.58228 -11.06532,-9.32813 -8.47835,-6.44036 -16.75166,-13.07843 -24.73098,-19.8203 -1.89164,-3.05592 -4.48461,-6.01587 -6.94973,-8.79049 -4.50342,-6.16748 -9.46287,-11.97097 -14.64378,-17.58876 -3.00014,-2.641 -3.75391,-6.78128 -6.85254,-9.33122 -1.32717,-1.65628 -2.43213,-3.4362 -3.6983,-5.14743 -2.89225,-4.2954 -5.60914,-8.77247 -8.4985,-12.96922 -1.81571,-4.63119 -5.1915,-8.45756 -6.76822,-13.22274 -1.92762,-2.70443 -2.11957,-6.11293 -3.65786,-9.03711 -1.09319,-2.19025 -1.40757,-4.33049 -0.0345,-6.45354 1.31384,-2.47697 -1.15656,-4.65779 -3.62826,-4.37206 -12.6737,-1.27185 -25.42712,-1.86221 -38.16285,-1.9483 z M 339.9368,739.9962 c 6.34896,0.21929 13.80304,-0.0408 18.72037,4.7489 4.16283,5.75974 1.10744,13.341 -1.82892,18.95121 -8.66955,15.0565 -19.43602,29.07437 -33.90128,39.04082 -11.28047,7.76471 -26.38344,12.01644 -39.85564,7.21805 -11.12273,-3.61526 -18.7738,-12.90234 -28.16984,-19.41091 -6.05768,-4.44676 -6.45082,-12.69948 -8.54406,-19.31024 -0.47714,-1.65809 -1.26966,-3.49763 0.91571,-4.13475 16.42203,-10.63063 33.73236,-20.40588 52.75474,-25.52274 9.22217,-1.64173 18.74299,-0.60363 28.12644,-1.20942 3.92907,-0.0814 7.85217,-0.3532 11.78248,-0.37092 z m -97.90884,76.0781 c -0.0701,-0.002 -0.26878,-0.12678 0,0 z"
         style="fill:#b3b3b3;stroke:#000000;stroke-width:2.52538133;stroke-miterlimit:4;stroke-dasharray:none" />
    </g>
    <g
       id="g7995">
      <ellipse
         ry="132.85715"
         rx="212.85715"
         cy="830.14893"
         cx="-225.26407"
         id="path3336-2"
         style="fill:none;stroke:#000000;stroke-width:5;stroke-miterlimit:4;stroke-dasharray:none" />
      <circle
         r="7.4539809"
         cy="743.85706"
         cx="-218.7742"
         id="path4336"
         style="fill:#b3b3b3;stroke:#aa0000;stroke-width:5.09203815;stroke-miterlimit:4;stroke-dasharray:none" />
    </g>
    <path
       style="fill:none;fill-rule:evenodd;stroke:#000000;stroke-width:10;stroke-linecap:butt;stroke-linejoin:miter;stroke-miterlimit:4;stroke-dasharray:none;stroke-opacity:1;marker-end:url(#Arrow1Mend)"
       d="m -16.345185,464.43312 90.91373,0"
       id="path4365"
       inkscape:connector-curvature="0" />
    <path
       style="fill:none;fill-rule:evenodd;stroke:#000000;stroke-width:10;stroke-linecap:butt;stroke-linejoin:miter;stroke-miterlimit:4;stroke-dasharray:none;stroke-opacity:1;marker-end:url(#Arrow1Mend-7)"
       d="m 532.82063,464.53464 90.91373,0"
       id="path4365-9"
       inkscape:connector-curvature="0" />
    <path
       style="fill:none;fill-rule:evenodd;stroke:#000000;stroke-width:10;stroke-linecap:butt;stroke-linejoin:miter;stroke-miterlimit:4;stroke-dasharray:none;stroke-opacity:1;marker-end:url(#Arrow1Mend-7-6)"
       d="m 863.22172,601.00675 0,90.91373"
       id="path4365-9-6"
       inkscape:connector-curvature="0" />
    <path
       style="fill:none;fill-rule:evenodd;stroke:#000000;stroke-width:10;stroke-linecap:butt;stroke-linejoin:miter;stroke-miterlimit:4;stroke-dasharray:none;stroke-opacity:1;marker-end:url(#Arrow1Mend-7-6-1)"
       d="m 629.32503,838.84255 -90.91373,0"
       id="path4365-9-6-7"
       inkscape:connector-curvature="0" />
    <path
       style="fill:none;fill-rule:evenodd;stroke:#000000;stroke-width:10;stroke-linecap:butt;stroke-linejoin:miter;stroke-miterlimit:4;stroke-dasharray:none;stroke-opacity:1;marker-end:url(#Arrow1Mend-7-6-1-9)"
       d="m 109.55517,832.14895 -90.913729,0"
       id="path4365-9-6-7-0"
       inkscape:connector-curvature="0" />
    <circle
       cy="833.20984"
       cx="235.17265"
       id="path4336-2"
       style="fill:#000000;fill-opacity:1;stroke:#000000;stroke-width:7.63805723;stroke-miterlimit:4;stroke-dasharray:none"
       r="11.180971" />
    <circle
       cy="832.5766"
       cx="400.00836"
       id="path4336-2-3"
       style="fill:#000000;fill-opacity:1;stroke:#000000;stroke-width:7.63805723;stroke-miterlimit:4;stroke-dasharray:none"
       r="11.180971" />
    <circle
       cy="832.5766"
       cx="320.00836"
       id="path4336-2-7"
       style="fill:#000000;fill-opacity:1;stroke:#000000;stroke-width:7.63805723;stroke-miterlimit:4;stroke-dasharray:none"
       r="11.180971" />
    <path
       style="opacity:0.65;fill:none;fill-opacity:1;stroke:none;stroke-width:2.52538133;stroke-miterlimit:4;stroke-dasharray:none;stroke-opacity:1"
       d="m 1620.0608,582.41266 c -3.5663,-0.9777 -10.2248,-4.37308 -13.1654,-6.71338 -1.3709,-1.09101 -4.8504,-3.27105 -7.7324,-4.84451 -2.8819,-1.57348 -6.0598,-3.41805 -7.062,-4.09906 -1.0022,-0.681 -2.0178,-1.23819 -2.2568,-1.23819 -0.2391,0 -1.8136,-1.24789 -3.499,-2.77309 -1.6854,-1.52519 -4.9032,-3.68327 -7.1505,-4.79572 -2.2474,-1.11245 -7.2682,-4.06789 -11.1573,-6.56765 -3.8891,-2.49976 -7.2517,-4.54644 -7.4724,-4.54819 -0.7366,-0.006 -12.7085,-8.68348 -14.2458,-10.32588 -1.6794,-1.7941 -9.0575,-7.67633 -14.8998,-11.879 -2.0834,-1.49872 -4.4699,-3.33887 -5.3033,-4.08921 -0.8334,-0.75035 -1.7858,-1.44899 -2.1164,-1.55254 -0.6643,-0.20801 -5.3735,-4.00053 -11.1527,-8.98161 -4.0607,-3.4999 -12.4839,-12.93955 -16.5008,-18.49201 -1.3727,-1.89743 -4.216,-5.28489 -6.3186,-7.5277 -5.0426,-5.37895 -7.2807,-8.24001 -8.1289,-10.39128 -0.3833,-0.97227 -1.6397,-2.79055 -2.792,-4.04061 -1.1523,-1.25007 -2.7303,-3.29563 -3.5066,-4.54569 -0.7763,-1.25006 -2.5693,-3.79524 -3.9845,-5.65594 -10.8192,-14.22512 -20.7426,-36.34121 -17.8957,-39.88374 0.7568,-0.94176 0.8429,-0.93365 14.8175,1.39416 31.3623,5.22416 63.5103,16.36654 89.146,30.89766 39.8492,22.58781 64.819,52.51799 71.7295,85.97884 1.3612,6.59131 1.9021,19.99923 1.0596,26.26397 -0.7856,5.84097 -3.3461,16.46694 -4.3297,17.96806 -0.9211,1.40585 -2.2223,1.50047 -6.082,0.44231 z"
       id="path1024"
       inkscape:connector-curvature="0"
       transform="matrix(0.93749997,0,0,0.93749997,-455.55954,328.24857)" />
    <path
       style="opacity:0.65;fill:none;fill-opacity:1;stroke:none;stroke-width:2.52538133;stroke-miterlimit:4;stroke-dasharray:none;stroke-opacity:1"
       d="m 1408.6859,595.0213 c -7.3761,-1.94978 -17.0689,-8.11449 -28.0571,-17.84456 -5.61,-4.96765 -5.99,-5.43137 -8.2041,-10.01103 -2.7655,-5.72019 -3.4249,-10.0327 -1.8078,-11.82233 3.1072,-3.43869 16.1512,-10.79084 32.9453,-18.56938 15.9063,-7.36731 20.2328,-8.04913 51.8432,-8.17002 22.0137,-0.0842 22.5015,-0.0192 25.4999,3.39581 1.7392,1.98074 1.8602,3.19394 0.751,7.52645 -1.7354,6.77868 -5.9106,13.90524 -15.0795,25.73874 -15.5733,20.09913 -32.7355,30.62929 -49.7482,30.52388 -2.9692,-0.0184 -6.6053,-0.36114 -8.1427,-0.76756 z"
       id="path1026"
       inkscape:connector-curvature="0"
       transform="matrix(0.93749997,0,0,0.93749997,-455.55954,328.24857)" />
    <path
       style="opacity:0.65;fill:none;fill-opacity:1;stroke:none;stroke-width:2.52538133;stroke-miterlimit:4;stroke-dasharray:none;stroke-opacity:1"
       d="m 1407.6757,186.41633 c -7.2966,-1.92423 -17.1704,-8.20614 -28.0738,-17.8611 -5.6574,-5.00962 -5.9918,-5.41912 -8.1572,-9.99046 -2.7294,-5.7617 -3.4062,-10.09265 -1.8469,-11.81827 3.1074,-3.43879 15.3352,-10.3479 32.4053,-18.30996 16.4046,-7.65164 20.5379,-8.31744 52.3922,-8.43926 22.0137,-0.0842 22.5015,-0.0192 25.4999,3.39581 1.7343,1.97525 1.8569,3.17572 0.7688,7.52645 -2.5667,10.26237 -17.6889,31.38808 -29.6554,41.42865 -12.0843,10.13938 -23.3945,14.90705 -35.1902,14.83396 -2.9599,-0.0183 -6.61,-0.36163 -8.1427,-0.76582 z"
       id="path1028"
       inkscape:connector-curvature="0"
       transform="matrix(0.93749997,0,0,0.93749997,-455.55954,328.24857)" />
    <path
       style="opacity:0.65;fill:#ffffff;fill-opacity:1;stroke:#ffffff;stroke-width:3.57142854;stroke-miterlimit:4;stroke-dasharray:none;stroke-opacity:1"
       d="m 240.3739,399.79154 c -18.82531,-0.2823 -37.25808,1.17211 -55.70293,4.74484 -48.54137,8.82214 -97.421814,27.68794 -131.92861,64.13208 -19.228716,20.24097 -31.581862,48.70991 -27.895802,77.14149 3.61697,29.45906 22.92687,54.37113 45.503411,72.36578 37.478191,29.56461 84.827741,44.73111 131.829181,50.63226 42.76923,5.20154 86.51563,2.86614 128.36773,-7.69813 35.83979,-9.52529 70.8065,-25.05597 98.74722,-49.87022 22.09052,-19.74469 39.05434,-48.3382 37.57812,-78.51842 -0.42391,-29.28194 -17.66778,-55.87775 -39.29408,-74.63309 -42.21617,-36.68202 -98.64547,-53.0135 -153.27148,-57.79436 -11.28264,-0.49821 -22.60016,-0.53625 -33.93276,-0.50223 z m 12.08566,30.30831 c 9.76746,-0.80456 17.57042,11.83033 11.5053,19.88979 -4.41976,8.87951 -18.53773,8.48146 -22.99107,-0.1702 -5.20914,-8.5677 1.44688,-20.05957 11.48577,-19.71959 z"
       id="path1013"
       inkscape:connector-curvature="0"
       transform="matrix(0.93749997,0,0,0.93749997,-455.55954,328.24857)" />
    <path
       style="opacity:0.65;fill:#ffffff;fill-opacity:1;stroke:#ffffff;stroke-width:3.57142854;stroke-miterlimit:4;stroke-dasharray:none;stroke-opacity:1"
       d="m 752.75113,14.195835 c -44.01159,8.650146 -88.25553,25.704927 -121.45926,56.943359 -17.22623,16.457903 -31.31159,38.368046 -34.31222,62.253066 -3.47568,24.81659 5.65763,50.55532 21.20332,69.87469 8.52721,10.94335 18.88529,20.26757 29.9267,28.50003 C 683.42244,159.41034 718.29,86.835025 752.95063,14.163748 Z"
       id="path1015"
       inkscape:connector-curvature="0"
       transform="matrix(0.93749997,0,0,0.93749997,-455.55954,328.24857)" />
    <path
       style="opacity:1;fill:#ffffff;fill-opacity:1;stroke:#ffffff;stroke-width:5.05076265;stroke-miterlimit:4;stroke-dasharray:none;stroke-opacity:1"
       d="m 751.83539,14.549235 c -49.11237,9.917576 -98.84817,30.154201 -131.8053,69.269217 -19.87049,23.406018 -29.47617,56.131138 -19.62879,85.870088 8.00329,25.17484 26.45483,46.4853 47.47322,61.36677 35.46454,-72.07277 70.58796,-144.340636 105.35181,-216.730992 l -0.9972,0.161249 z"
       id="path1017"
       inkscape:connector-curvature="0"
       transform="matrix(0.93749997,0,0,0.93749997,-455.55954,328.24857)" />
    <path
       style="opacity:1;fill:#ffffff;fill-opacity:1;stroke:#ffffff;stroke-width:5.05076265;stroke-miterlimit:4;stroke-dasharray:none;stroke-opacity:1"
       d="m 1340.1467,15.681711 c -48.2159,9.576776 -97.2599,29.625632 -130.545,67.444577 -20.5694,23.229292 -30.7581,56.843182 -20.9517,86.983982 7.8613,25.74381 26.5435,46.78935 47.9166,62.46027 34.6445,-72.34344 70.4825,-144.136777 104.0338,-216.969721 z"
       id="path1019"
       inkscape:connector-curvature="0"
       transform="matrix(0.93749997,0,0,0.93749997,-455.55954,328.24857)" />
    <path
       style="opacity:0.65;fill:#ffffff;fill-opacity:1;stroke:#ffffff;stroke-width:5.05076265;stroke-miterlimit:4;stroke-dasharray:none;stroke-opacity:1"
       d="m 1341.4784,424.16412 c -47.114,9.67145 -94.9264,28.26745 -128.0566,64.57084 -16.2352,18.30066 -28.9115,42.02089 -26.9423,67.15931 -0.9744,21.2647 8.9566,41.44104 21.8647,57.81308 31.0542,37.67467 78.8826,58.00949 125.2305,68.49945 11.8008,2.6237 23.7296,4.61614 35.7085,6.04907 1.3662,-11.02903 6.9027,-21.46301 5.295,-32.81246 0.302,-12.56463 -3.9716,-24.16204 -11.7597,-34.03419 -7.1974,-11.03631 -14.4865,-22.54843 -26.1206,-29.45324 -9.1396,-6.34665 -18.4872,-12.52698 -28.9807,-16.25912 -9.1511,-3.72668 -17.4958,-9.39801 -24.4903,-16.45444 -5.854,-4.13284 -1.7792,-9.91511 0.7487,-14.67879 19.6728,-40.21764 39.4729,-80.37307 58.9588,-120.68165 l -0.9917,0.19216 z"
       id="path1021"
       inkscape:connector-curvature="0"
       transform="matrix(0.93749997,0,0,0.93749997,-455.55954,328.24857)" />
    <path
       style="opacity:1;fill:#ffffff;fill-opacity:1;stroke:#ffffff;stroke-width:5.05076265;stroke-miterlimit:4;stroke-dasharray:none;stroke-opacity:1"
       d="m 1453.7691,531.2541 c -15.4968,0.88418 -32.058,-0.82134 -46.1948,6.90336 -11.5326,5.81882 -24.3408,10.14843 -33.9624,18.85553 -2.8914,5.79954 3.1763,11.75711 6.783,15.88819 8.8099,8.48545 18.8577,16.76759 30.9793,19.71574 10.6588,1.00114 21.4027,-1.31489 30.1977,-7.54768 15.5277,-10.45623 27.4535,-25.60094 36.0324,-41.99518 1.5607,-3.60294 4.0182,-10.52315 -2.038,-11.19651 -7.2123,-0.94423 -14.5398,-0.62675 -21.7972,-0.62345 z"
       id="path1023"
       inkscape:connector-curvature="0"
       transform="matrix(0.93749997,0,0,0.93749997,-455.55954,328.24857)" />
    <path
       style="opacity:1;fill:#ffffff;fill-opacity:1;stroke:#ffffff;stroke-width:5.05076265;stroke-miterlimit:4;stroke-dasharray:none;stroke-opacity:1"
       d="m 1456.2846,422.05897 c -0.7216,2.2744 1.6625,6.31872 2.4682,9.12097 7.1414,17.28406 19.0163,32.00451 29.9064,46.98564 10.0351,10.55405 17.6412,23.28053 29.2979,32.29545 20.6237,16.5948 41.061,33.68802 64.478,46.29784 10.5637,7.47852 21.7027,14.15387 32.8519,20.69984 2.6358,0.72387 6.216,3.72778 8.6297,2.56681 8.4492,-23.95781 3.827,-51.14389 -9.5561,-72.57926 -18.3994,-30.59212 -49.7581,-50.82889 -81.8426,-64.94886 -24.4106,-10.31421 -49.951,-17.45461 -76.2334,-20.43843 z"
       id="path1025"
       inkscape:connector-curvature="0"
       transform="matrix(0.93749997,0,0,0.93749997,-455.55954,328.24857)" />
    <path
       style="opacity:1;fill:#ffffff;fill-opacity:1;stroke:#ffffff;stroke-width:5.05076265;stroke-miterlimit:4;stroke-dasharray:none;stroke-opacity:1"
       d="m 1460.4436,122.90782 c -14.9228,0.71578 -30.0551,-0.69713 -44.6559,2.72663 -15.0524,6.26031 -30.7209,12.8897 -43.5016,22.71067 -1.6455,6.19714 3.3683,12.41909 7.6215,16.62214 11.1056,9.90196 24.4914,21.48096 40.483,19.30338 24.3442,-3.89343 41.3026,-24.61938 53.1945,-44.64924 1.74,-4.41003 7.1168,-10.17183 3.6602,-14.8294 -4.6954,-3.39185 -11.4202,-1.2417 -16.8017,-1.88418 z"
       id="path1027"
       inkscape:connector-curvature="0"
       transform="matrix(0.93749997,0,0,0.93749997,-455.55954,328.24857)" />
    <path
       style="opacity:1;fill:#ffffff;fill-opacity:1;stroke:#ffffff;stroke-width:5.05076265;stroke-miterlimit:4;stroke-dasharray:none;stroke-opacity:1"
       d="m 1342.2202,423.94709 c -46.3845,9.45052 -93.0289,27.64007 -126.5625,62.24672 -20.1823,20.76152 -33.4329,50.11104 -28.8846,79.46664 4.9319,36.4496 32.7675,65.02355 62.8078,83.67974 36.1741,22.30949 77.9287,33.82684 119.7418,38.92752 1.4955,-11.09541 7.0294,-21.61313 5.2449,-33.08083 0.2819,-12.03649 -3.7587,-23.49532 -11.181,-32.94369 -7.4906,-11.3185 -14.8217,-23.34808 -26.8465,-30.44703 -7.5789,-5.22401 -15.5124,-10.21106 -23.6182,-14.30589 -9.142,-2.9802 -17.7808,-7.27946 -24.8612,-13.95075 -3.6999,-3.05151 -9.4166,-7.1993 -6.2622,-12.6861 17.2135,-38.82805 37.1416,-76.41052 55.1824,-114.86474 1.514,-3.73773 4.9835,-9.24124 5.2393,-12.04159 z"
       id="path1029"
       inkscape:connector-curvature="0"
       transform="matrix(0.93749997,0,0,0.93749997,-455.55954,328.24857)" />
    <path
       style="opacity:1;fill:#ffffff;fill-opacity:1;stroke:#ffffff;stroke-width:5.05076265;stroke-miterlimit:4;stroke-dasharray:none;stroke-opacity:1"
       d="m 240.78333,399.76262 c -59.88677,0.46724 -121.87831,15.53453 -170.061425,52.60077 -24.787534,19.15542 -45.578484,48.13714 -46.19623,80.3936 -1.189374,29.4516 14.489208,57.12227 35.93951,76.2394 27.347212,26.55854 63.409625,41.83096 99.687455,51.67955 66.68986,17.09424 138.78421,13.95164 203.19258,-10.38957 36.86337,-14.67503 73.31232,-37.50404 92.74396,-73.14803 14.36005,-25.90709 14.21096,-58.89791 -0.61083,-84.62727 -21.02368,-37.38906 -60.13093,-60.52397 -99.30679,-74.77484 -37.0173,-13.56793 -76.23913,-18.63995 -115.38823,-17.97361 z m 11.86929,30.20395 c 9.64241,-0.40917 16.04068,10.73668 12.04489,19.17515 -4.35697,10.07152 -20.62609,9.81834 -24.44687,-0.58597 -3.74957,-8.57957 2.89026,-19.01916 12.40198,-18.58918 z"
       id="path1031"
       inkscape:connector-curvature="0"
       transform="matrix(0.93749997,0,0,0.93749997,-455.55954,328.24857)" />
    <path
       style="opacity:1;fill:#000000;fill-opacity:1;stroke:none;stroke-width:15;stroke-miterlimit:4;stroke-dasharray:none"
       d="m -427.71106,604.25729 0,-35.08531 16.9201,0.43943 c 19.2296,0.49942 23.7922,1.6836 31.055,8.05997 5.8768,5.15949 8.7449,12.2116 9.3622,23.01903 0.8353,14.62655 -3.448,26.1196 -11.7924,31.64167 -7.1969,4.7627 -12.6487,5.9588 -29.635,6.5019 l -15.9099,0.5086 0,-35.08529 z m 35.3887,25.05092 c 9.4098,-4.20512 13.7508,-13.6866 12.8471,-28.06044 -0.5993,-9.5335 -2.2481,-13.99482 -6.8155,-18.44211 -4.8632,-4.73526 -10.7135,-6.35891 -22.9124,-6.35891 l -10.4266,0 0,27.90631 0,27.90632 11.3642,-0.4524 c 8.4896,-0.338 12.5225,-0.9701 15.9432,-2.49877 z"
       id="path4226"
       inkscape:connector-curvature="0" />
    <path
       style="opacity:1;fill:#000000;fill-opacity:1;stroke:none;stroke-width:15;stroke-miterlimit:4;stroke-dasharray:none"
       d="m -236.37692,799.05007 c 0.34337,-0.55558 1.45799,-1.01015 2.47693,-1.01015 2.75591,0 3.07891,-1.84201 3.07891,-17.55826 0,-14.96839 -0.47784,-16.78693 -4.411,-16.78693 -1.09264,0 -1.70712,-0.27951 -1.36549,-0.62114 1.16679,-1.16679 20.9002,-1.48473 24.92282,-0.40155 9.09157,2.4481 9.72962,13.20528 1.04949,17.69395 l -2.91506,1.50743 5.55351,8.06202 c 3.05443,4.4341 6.32571,8.51231 7.26952,9.06268 1.5128,0.88217 1.45665,1.0043 -0.47421,1.03138 -3.87815,0.0544 -5.28341,-1.06062 -10.59897,-8.40981 -6.1294,-8.47438 -6.40301,-8.69643 -10.7411,-8.71659 l -3.32725,-0.0155 0.29679,7.3236 c 0.27234,6.72032 0.48402,7.3502 2.56964,7.64641 1.25006,0.17753 2.27284,0.74574 2.27284,1.26269 0,0.51694 -3.66338,0.93989 -8.14084,0.93989 -5.16999,0 -7.91301,-0.36863 -7.51653,-1.01015 z m 22.1781,-18.81023 c 2.12533,-0.81557 4.59095,-5.63016 4.59095,-8.96472 0,-4.19991 -4.16898,-7.58039 -9.34851,-7.58039 -2.41426,0 -4.93505,0.54548 -5.60175,1.21218 -0.72141,0.72141 -1.21218,4.19775 -1.21218,8.5863 l 0,7.37411 4.96814,0 c 2.73248,0 5.70399,-0.28237 6.60335,-0.62748 z"
       id="path4228"
       inkscape:connector-curvature="0" />
  </g>
</svg>
